<?xml version="1.0" encoding="UTF-8"?>
<svg id="Layer_2" data-name="Layer 2" xmlns="http://www.w3.org/2000/svg" viewBox="0 0 547.01 539.94">
  <defs>
    <style>
      .cls-1, .cls-2 {
        fill-rule: evenodd;
      }

      .cls-1, .cls-2, .cls-3, .cls-4 {
        stroke-width: 0px;
      }

      .cls-1, .cls-4 {
        fill: #00618a;
      }

      .cls-2, .cls-3 {
        fill: #e48e00;
      }
    </style>
  </defs>
  <path class="cls-4" d="m82.71,322.49h13.75v-54.29l21.28,47.33c2.51,5.73,5.95,7.76,12.69,7.76s10.05-2.03,12.56-7.76l21.28-47.33v54.29h13.75v-54.2c0-5.29-2.12-7.84-6.48-9.17-10.44-3.26-17.45-.44-20.62,6.61l-20.89,46.71-20.23-46.71c-3.04-7.05-10.18-9.87-20.62-6.61-4.36,1.32-6.48,3.88-6.48,9.16v54.2Zm106.75-44.19h13.74v29.91c-.13,1.63.52,5.44,8.05,5.56,3.84.06,29.66,0,29.9,0v-35.61h13.78c.06,0-.01,48.57-.01,48.77.07,11.98-14.86,14.58-21.75,14.78h-43.41v-9.25c.08,0,43.38,0,43.49,0,8.85-.93,7.8-5.33,7.8-6.81v-3.61h-29.22c-13.6-.13-22.25-6.06-22.36-12.88-.01-.63.29-30.56,0-30.85h0Z"/>
  <path class="cls-3" d="m265.52,322.49h39.53c4.63,0,9.12-.97,12.69-2.64,5.95-2.73,8.86-6.43,8.86-11.28v-10.05c0-3.97-3.3-7.67-9.78-10.14-3.44-1.32-7.67-2.03-11.77-2.03h-16.66c-5.55,0-8.19-1.67-8.86-5.38-.13-.44-.13-.79-.13-1.23v-6.26c0-.35,0-.71.13-1.15.66-2.82,2.12-3.61,7.01-4.05.4,0,.93-.09,1.32-.09h39.26v-9.16h-38.6c-5.55,0-8.46.35-11.1,1.14-8.2,2.56-11.77,6.61-11.77,13.66v8.02c0,6.17,7.01,11.46,18.77,12.69,1.32.09,2.64.18,3.97.18h14.28c.53,0,1.06,0,1.45.09,4.36.35,6.21,1.15,7.54,2.73.79.79,1.06,1.59,1.06,2.47v8.02c0,.97-.66,2.21-1.98,3.26-1.19,1.06-3.17,1.76-5.82,1.94-.53,0-.93.09-1.45.09h-37.94v9.16h0Zm146.84-15.95c0,9.43,7.01,14.72,21.15,15.78,1.32.09,2.64.18,3.97.18h35.83v-9.17h-36.09c-8.06,0-11.1-2.03-11.1-6.87v-47.42h-13.75v47.51h0Zm-76.99.48v-32.68c0-8.3,5.83-13.34,17.35-14.93,1.23-.18,2.47-.26,3.71-.26h26.1c1.32,0,2.52.09,3.84.26,11.53,1.59,17.35,6.62,17.35,14.93v32.68c0,6.73-2.48,10.34-8.18,12.69l13.54,12.22h-15.96l-10.96-9.89-11.03.7h-14.7c-2.52,0-5.17-.35-8.08-1.15-8.74-2.38-12.98-6.98-12.98-14.57h0Zm14.84-.79c0,.44.13.88.27,1.41.79,3.8,4.37,5.92,9.8,5.92h12.49l-11.47-10.36h15.96l10.01,9.03c1.84-.98,3.06-2.49,3.48-4.42.13-.44.13-.88.13-1.32v-31.35c0-.35,0-.8-.13-1.24-.8-3.53-4.37-5.56-9.67-5.56h-20.8c-6.09,0-10.07,2.65-10.07,6.8v31.09h0Z"/>
  <path class="cls-4" d="m485.4,243.82c-8.45-.23-14.91.56-20.43,2.88-1.57.66-4.07.68-4.33,2.64.86.9,1,2.25,1.68,3.36,1.32,2.13,3.54,4.99,5.53,6.49,2.17,1.64,4.4,3.39,6.73,4.81,4.14,2.52,8.75,3.96,12.74,6.49,2.35,1.49,4.68,3.36,6.97,5.05,1.13.83,1.89,2.12,3.36,2.64v-.24c-.77-.98-.97-2.34-1.68-3.36l-3.12-3.12c-3.05-4.05-6.93-7.62-11.05-10.57-3.29-2.36-10.64-5.55-12.02-9.37l-.24-.24c2.33-.26,5.06-1.11,7.21-1.68,3.61-.97,6.84-.72,10.57-1.68,1.68-.48,3.36-.96,5.05-1.44v-.96c-1.89-1.94-3.23-4.5-5.29-6.25-5.38-4.58-11.25-9.16-17.3-12.98-3.35-2.12-7.5-3.49-11.05-5.29-1.2-.6-3.3-.92-4.09-1.92-1.87-2.38-2.88-5.4-4.33-8.17-3.02-5.81-5.98-12.15-8.65-18.26-1.82-4.17-3.01-8.28-5.29-12.02-10.91-17.94-22.66-28.77-40.85-39.41-3.87-2.26-8.53-3.16-13.46-4.33l-7.93-.48c-1.61-.67-3.29-2.65-4.81-3.6-6.03-3.81-21.49-12.09-25.95-1.2-2.82,6.87,4.21,13.58,6.73,17.06,1.77,2.44,4.03,5.18,5.29,7.93.83,1.81.97,3.62,1.68,5.53,1.75,4.71,3.27,9.83,5.53,14.18,1.14,2.2,2.4,4.52,3.85,6.49.89,1.21,2.4,1.74,2.64,3.61-1.48,2.08-1.57,5.3-2.4,7.93-3.76,11.84-2.34,26.56,3.12,35.33,1.68,2.69,5.62,8.46,11.05,6.25,4.75-1.93,3.69-7.93,5.05-13.22.31-1.2.12-2.08.72-2.88v.24l4.33,8.65c3.2,5.15,8.88,10.54,13.7,14.18,2.5,1.89,4.46,5.15,7.69,6.25v-.24h-.24c-.63-.97-1.6-1.38-2.4-2.16-1.88-1.84-3.97-4.14-5.53-6.25-4.38-5.95-8.25-12.45-11.77-19.22-1.68-3.23-3.15-6.8-4.57-10.09-.55-1.27-.54-3.19-1.68-3.85-1.55,2.41-3.84,4.36-5.05,7.21-1.92,4.55-2.17,10.1-2.88,15.86-.42.15-.24.05-.48.24-3.35-.81-4.52-4.25-5.77-7.21-3.15-7.47-3.73-19.51-.96-28.12.72-2.23,3.95-9.24,2.64-11.29-.63-2.05-2.69-3.24-3.84-4.81-1.43-1.94-2.86-4.49-3.85-6.73-2.57-5.83-3.78-12.37-6.49-18.26-1.3-2.82-3.49-5.67-5.29-8.17-1.99-2.77-4.22-4.82-5.77-8.17-.55-1.19-1.3-3.1-.48-4.33.26-.83.63-1.17,1.44-1.44,1.39-1.07,5.28.36,6.73.96,3.85,1.6,7.07,3.13,10.33,5.29,1.57,1.04,3.15,3.05,5.05,3.61h2.16c3.38.78,7.17.24,10.33,1.2,5.59,1.7,10.59,4.34,15.14,7.21,13.85,8.75,25.18,21.2,32.92,36.05,1.25,2.39,1.79,4.67,2.88,7.21,2.22,5.12,5.01,10.38,7.21,15.38,2.2,4.99,4.34,10.03,7.45,14.18,1.63,2.18,7.95,3.35,10.81,4.57,2.01.85,5.31,1.74,7.21,2.88,3.64,2.19,7.16,4.81,10.57,7.21,1.71,1.2,6.95,3.84,7.21,6.01h0Z"/>
  <path class="cls-1" d="m377.99,152.26c-1.76-.03-3.01.19-4.33.48v.24h.24c.84,1.73,2.32,2.84,3.36,4.33.8,1.68,1.6,3.36,2.4,5.05l.24-.24c1.49-1.05,2.17-2.73,2.16-5.29-.6-.63-.69-1.42-1.2-2.16-.69-1-2.02-1.56-2.88-2.4Z"/>
  <path class="cls-2" d="m479.76,313.06c0,6.05,4.78,10.13,10.13,10.13s10.13-4.08,10.13-10.13-4.78-10.13-10.13-10.13-10.13,4.08-10.13,10.13h0Zm18,0c0,4.59-3.51,8.03-7.86,8.03s-7.86-3.43-7.86-8.03,3.46-8.03,7.86-8.03,7.86,3.43,7.86,8.03Zm-5.13,5.78h2.27l-3.32-5.08c1.78-.19,3.13-1.05,3.13-3.16,0-2.35-1.48-3.32-4.35-3.32h-4.51v11.56h1.95v-5h1.81l3.03,5h0Zm-4.84-6.62v-3.32h2.24c1.16,0,2.57.22,2.57,1.57,0,1.62-1.27,1.76-2.73,1.76h-2.08Z"/>
</svg>